#!OML:ASF F:\VICON\USERDATA\INSTALL\Justin_Nancy\Justin_Nancy.ASF
:FULLY-SPECIFIED
:DEGREES
415
root -0.772766 18.4892 19.71 0.401552 4.53025 3.52726
lowerback 2.18716 0.000219812 -2.61047
upperback 0.52808 -0.0464656 1.44247
thorax -0.681234 -0.0191388 2.94701
lowerneck -13.6077 -4.53204 -11.6093
upperneck 17.9675 -5.21197 7.55711
head 8.33243 -2.53328 3.86719
rclavicle -8.57259e-015 -3.18055e-015
rhumerus -29.313 -10.3013 -75.0094
rradius 53.0704
rwrist -5.6444
rhand -17.8731 8.66086
rfingers 7.12502
rthumb 8.39278 -21.1524
lclavicle -8.57259e-015 -3.18055e-015
lhumerus -42.5856 5.39589 62.6906
lradius 59.965
lwrist 7.60081
lhand -27.2597 28.9942
lfingers 7.12502
lthumb -0.670896 58.9729
rfemur -3.64717 4.3225 19.4898
rtibia 21.6868
rfoot 2.26775 4.9293
rtoes 8.14583
lfemur -9.03354 -9.32028 -17.7204
ltibia 23.7576
lfoot 5.28265 1.41684
ltoes -7.58517
416
root -0.776632 18.4844 19.7313 0.720347 4.48662 3.49635
lowerback 2.43836 -0.080254 -2.40709
upperback 0.452287 -0.152903 1.57523
thorax -0.892453 -0.0683656 2.97325
lowerneck -13.5586 -4.38548 -11.7066
upperneck 17.7589 -4.97196 7.50285
head 8.23008 -2.43029 3.89161
rclavicle 8.15017e-015 -3.18055e-015
rhumerus -29.6361 -11.0286 -74.802
rradius 51.4798
rwrist -4.75072
rhand -18.1604 8.57822
rfingers 7.12502
rthumb 8.11553 -21.2459
lclavicle 8.15017e-015 -3.18055e-015
lhumerus -43.4028 5.41513 63.1666
lradius 59.4937
lwrist 6.60417
lhand -26.6143 29.4885
lfingers 7.12502
lthumb -0.0475976 59.4682
rfemur -3.77033 4.46338 19.5651
rtibia 21.4265
rfoot 1.97625 4.68926
rtoes 8.57842
lfemur -9.18396 -9.24604 -17.5786
ltibia 23.5622
lfoot 5.00053 1.41728
ltoes -7.93989
417
root -0.784491 18.4743 19.7538 0.974993 4.36842 3.29537
lowerback 2.68231 -0.152703 -2.11109
upperback 0.427624 -0.243293 1.76882
thorax -1.0486 -0.111582 3.01023
lowerneck -13.4212 -4.29565 -11.7876
upperneck 17.3479 -4.8112 7.41822
head 8.05199 -2.36552 3.89113
rclavicle 8.19987e-015 -6.36111e-015
rhumerus -29.7888 -11.8058 -74.6226
rradius 49.7312
rwrist -3.38511
rhand -18.698 8.23603
rfingers 7.12502
rthumb 7.59665 -21.6075
lclavicle 8.19987e-015 -6.36111e-015
lhumerus -43.964 5.55209 63.6302
lradius 58.5593
lwrist 5.61851
lhand -26.3466 28.7686
lfingers 7.12502
lthumb 0.211017 58.7482
rfemur -3.81924 4.80843 19.8822
rtibia 21.1738
rfoot 1.6339 4.34222
rtoes 9.28875
lfemur -9.34 -9.00701 -17.2335
ltibia 23.4398
lfoot 4.6386 1.29904
ltoes -8.05734
418
root -0.790389 18.459 19.7663 1.35613 4.22121 3.24961
lowerback 2.68202 -0.204831 -1.97639
upperback 0.503353 -0.307545 1.9163
thorax -0.966281 -0.146059 3.08832
lowerneck -13.5596 -4.24861 -11.8373
upperneck 17.1268 -4.69305 7.33816
head 7.99074 -2.31471 3.88159
rclavicle 1.24737e-014 -8.74653e-015
rhumerus -29.5638 -12.7229 -74.4333
rradius 47.6727
rwrist -2.10051
rhand -18.7352 8.59693
rfingers 7.12502
rthumb 7.56073 -21.2479
lclavicle 1.24737e-014 -8.74653e-015
lhumerus -44.02 5.96155 63.9866
lradius 56.9329
lwrist 4.2753
lhand -25.4435 26.429
lfingers 7.12502
lthumb 1.08321 56.406
rfemur -4.04256 5.16238 20.0018
rtibia 20.9556
rfoot 1.44931 3.97925
rtoes 11.1791
lfemur -9.62197 -8.82348 -17.0538
ltibia 23.3247
lfoot 4.36016 1.227
ltoes -8.28377
419
root -0.789071 18.4463 19.7733 1.82479 4.27282 3.43743
lowerback 2.41661 -0.283741 -2.01114
upperback 0.75786 -0.4111 1.99817
thorax -0.54854 -0.20693 3.19256
lowerneck -14.1111 -4.2133 -11.6513
upperneck 17.0319 -4.55812 7.05453
head 8.03283 -2.25331 3.76337
rclavicle -1.81888e-014 1.11319e-014
rhumerus -28.9708 -13.7122 -74.2569
rradius 45.5651
rwrist -1.21248
rhand -18.6705 9.12953
rfingers 7.12502
rthumb 7.62316 -20.7131
lclavicle -1.81888e-014 1.11319e-014
lhumerus -43.6331 6.84217 64.3041
lradius 55.063
lwrist 2.34035
lhand -24.2 24.8466
lfingers 7.12502
lthumb 2.28416 54.8141
rfemur -4.359 5.2473 19.8049
rtibia 20.7685
rfoot 1.2503 3.67499
rtoes 12.0571
lfemur -9.99334 -8.83799 -17.1634
ltibia 23.2328
lfoot 4.14185 1.1309
ltoes -9.17691
